<svg width="20" height="22" viewBox="0 0 20 22" fill="none" xmlns="http://www.w3.org/2000/svg">
<path d="M19.4856 15.2188C19.5606 15.3476 19.5814 15.5009 19.5434 15.645C19.5055 15.7892 19.4118 15.9124 19.2831 15.9875L10.2831 21.2375C10.1976 21.2869 10.1006 21.3129 10.0019 21.3129C9.90314 21.3129 9.80614 21.2869 9.72062 21.2375L0.720625 15.9875C0.602439 15.9078 0.518914 15.7862 0.48693 15.6473C0.454947 15.5084 0.476891 15.3626 0.548328 15.2392C0.619765 15.1159 0.735366 15.0242 0.871766 14.9829C1.00817 14.9415 1.15519 14.9534 1.28313 15.0163L10.0019 20.1003L18.7206 15.0163C18.8491 14.9425 19.0015 14.9223 19.1448 14.9602C19.288 14.9982 19.4105 15.0911 19.4856 15.2188ZM18.7188 10.5144L10 15.5984L1.28125 10.5144C1.15332 10.4515 1.00629 10.4396 0.869891 10.481C0.733491 10.5224 0.61789 10.614 0.546453 10.7373C0.475016 10.8607 0.453072 11.0066 0.485055 11.1455C0.517039 11.2844 0.600564 11.4059 0.71875 11.4856L9.71875 16.7356C9.80426 16.785 9.90126 16.811 10 16.811C10.0987 16.811 10.1957 16.785 10.2812 16.7356L19.2812 11.4856C19.3994 11.4059 19.483 11.2844 19.5149 11.1455C19.5469 11.0066 19.525 10.8607 19.4535 10.7373C19.3821 10.614 19.2665 10.5224 19.1301 10.481C18.9937 10.4396 18.8467 10.4515 18.7188 10.5144ZM0.4375 6.50001C0.437765 6.40153 0.463882 6.30484 0.513239 6.21962C0.562595 6.1344 0.633461 6.06363 0.71875 6.01439L9.71875 0.764386C9.80426 0.715017 9.90126 0.689026 10 0.689026C10.0987 0.689026 10.1957 0.715017 10.2812 0.764386L19.2812 6.01439C19.3661 6.06396 19.4364 6.13487 19.4853 6.22007C19.5342 6.30527 19.5599 6.40178 19.5599 6.50001C19.5599 6.59824 19.5342 6.69476 19.4853 6.77996C19.4364 6.86516 19.3661 6.93607 19.2812 6.98564L10.2812 12.2356C10.1957 12.285 10.0987 12.311 10 12.311C9.90126 12.311 9.80426 12.285 9.71875 12.2356L0.71875 6.98564C0.633461 6.9364 0.562595 6.86563 0.513239 6.7804C0.463882 6.69518 0.437765 6.59849 0.4375 6.50001ZM2.11656 6.50001L10 11.0984L17.8834 6.50001L10 1.90626L2.11656 6.50001Z" fill="white" fill-opacity="0.8"/>
</svg>
